<svg t="1659167528647" class="icon" viewBox="0 0 1024 1024" version="1.1" xmlns="http://www.w3.org/2000/svg" p-id="899" width="200" height="200"><path d="M384 896v64l128 64 128-64v-64l-128 64zM64 448l64 28.8V247.04l128-71.68V128h-48L64 208z m896-240L816 128H768v47.36l128 72.32v229.12L960 448V208zM64 512v256l256 128v-202.88l192 87.68 192-87.68V896l256-128V512l-448 196.48z m192 288l-128-64v-128l128 58.24z m512-136.32l128-58.24v128l-128 64zM256 384v152.32l64 30.08v-166.4L512 256l192 144v166.4l64-30.08V384L570.88 236.16 704 192V64L512 0 320 64v128l133.12 44.16z m128-234.88v-42.88L512 64l128 42.88v42.88L512 192z" fill="#666666" p-id="900"></path></svg>