<svg t="1659167556361" class="icon" viewBox="0 0 1024 1024" version="1.1" xmlns="http://www.w3.org/2000/svg" p-id="1044" width="200" height="200"><path d="M53.878154 756.184615v63.015385l441.107692 189.046154 441.107692-189.046154v-63.015385l-441.107692 189.046154z m441.107692-756.184615l-441.107692 189.046154v441.107692l207.950769 89.481846L494.985846 819.2l441.107692-189.046154V189.046154z m378.092308 594.235077l-378.092308 161.949538-171.401846-73.728 252.061538-152.49723a93.892923 93.892923 0 1 0-17.644307-57.344v5.671384l-296.172308 177.703385-144.935385-61.755077V224.964923l378.092308-161.949538 171.401846 73.728-252.061538 152.49723a93.892923 93.892923 0 1 0 17.644308 57.344v-5.671384l296.172307-177.703385 145.565539 63.015385z m-252.061539-121.619692a31.507692 31.507692 0 1 1 31.507693 31.507692 31.507692 31.507692 0 0 1-31.507693-31.507692z m-252.061538-126.03077a31.507692 31.507692 0 1 1-31.507692-31.507692 31.507692 31.507692 0 0 1 31.507692 31.507692z" fill="#666666" p-id="1045"></path></svg>